HIERARCHY
ROOT root
{
	OFFSET	0.00	0.00	0.00
	CHANNELS 6 Xposition Yposition Zposition Zrotation Xrotation Yrotation
	JOINT back
	{
		OFFSET	 0.494685	-0.003166	-0.003221
		CHANNELS 3 Zrotation Xrotation Yrotation
		JOINT chest
		{
			OFFSET	 0.264817	 0.004177	 0.000000
			CHANNELS 3 Zrotation Xrotation Yrotation
			JOINT l_clavicle
			{
				OFFSET	 0.114550	 0.000716	-0.065320
				CHANNELS 3 Zrotation Xrotation Yrotation
				JOINT l_end_clavicle
				{
					OFFSET	 0.162817	-0.003802	 0.000069
					CHANNELS 3 Zrotation Xrotation Yrotation
					JOINT l_shoulder
					{
						OFFSET	 0.005353	-0.036500	 0.055847
						CHANNELS 3 Zrotation Xrotation Yrotation
						JOINT l_forearm
						{
							OFFSET	 0.293707	 0.004723	-0.037815
							CHANNELS 3 Zrotation Xrotation Yrotation
							JOINT l_end_wrist
							{
								OFFSET	 0.317021	-0.006522	 0.006333
								CHANNELS 3 Zrotation Xrotation Yrotation
								JOINT l_index1
								{
									OFFSET	 0.152748	-0.021000	-0.014320
									CHANNELS 3 Zrotation Xrotation Yrotation
									JOINT l_index2
									{
										OFFSET	 0.039283	 0.000000	 0.000000
										CHANNELS 3 Zrotation Xrotation Yrotation
										JOINT l_index3
										{
											OFFSET	 0.038151	 0.000000	 0.000000
											CHANNELS 3 Zrotation Xrotation Yrotation
											End Site
											{
												OFFSET	 0.038151	 0.000000	 0.000000
											}
										}
									}
								}
								JOINT l_middle1
								{
									OFFSET	 0.151723	 0.016194	-0.014667
									CHANNELS 3 Zrotation Xrotation Yrotation
									JOINT l_middle_2
									{
										OFFSET	 0.038269	 0.000000	 0.000000
										CHANNELS 3 Zrotation Xrotation Yrotation
										JOINT l_middle_3
										{
											OFFSET	 0.039743	 0.000000	 0.000000
											CHANNELS 3 Zrotation Xrotation Yrotation
											End Site
											{
												OFFSET	 0.039743	 0.000000	 0.000000
											}
										}
									}
								}
								JOINT l_pinky1
								{
									OFFSET	 0.117088	 0.077397	-0.013818
									CHANNELS 3 Zrotation Xrotation Yrotation
									JOINT l_pinky2
									{
										OFFSET	 0.028938	 0.000000	 0.000000
										CHANNELS 3 Zrotation Xrotation Yrotation
										JOINT l_pinky3
										{
											OFFSET	 0.027080	 0.000000	 0.000000
											CHANNELS 3 Zrotation Xrotation Yrotation
											End Site
											{
												OFFSET	 0.027080	 0.000000	 0.000000
											}
										}
									}
								}
								JOINT l_ring1
								{
									OFFSET	 0.137788	 0.047650	-0.014135
									CHANNELS 3 Zrotation Xrotation Yrotation
									JOINT l_ring2
									{
										OFFSET	 0.030749	 0.000000	 0.000000
										CHANNELS 3 Zrotation Xrotation Yrotation
										JOINT l_ring3
										{
											OFFSET	 0.032711	 0.000000	 0.000000
											CHANNELS 3 Zrotation Xrotation Yrotation
											End Site
											{
												OFFSET	 0.032711	 0.000000	 0.000000
											}
										}
									}
								}
								JOINT l_thumb1
								{
									OFFSET	 0.054053	-0.036728	-0.011261
									CHANNELS 3 Zrotation Xrotation Yrotation
									JOINT l_thumb_2
									{
										OFFSET	 0.051141	-0.005593	-0.001180
										CHANNELS 3 Zrotation Xrotation Yrotation
										JOINT l_thumb_3
										{
											OFFSET	 0.046422	-0.001905	 0.000191
											CHANNELS 3 Zrotation Xrotation Yrotation
											End Site
											{
												OFFSET	 0.046422	-0.001905	 0.000191
											}
										}
									}
								}
							}
						}
					}
				}
			}
			JOINT neck
			{
				OFFSET	 0.143918	 0.000470	 0.000000
				CHANNELS 3 Zrotation Xrotation Yrotation
				JOINT head
				{
					OFFSET	-0.005023	-0.004308	 0.061004
					CHANNELS 3 Zrotation Xrotation Yrotation
					End Site
					{
						OFFSET	-0.005023	-0.004308	 0.061004
					}
				}
			}
			JOINT r_clavicle
			{
				OFFSET	 0.114552	 0.000716	 0.065320
				CHANNELS 3 Zrotation Xrotation Yrotation
				JOINT r_end_clavicle
				{
					OFFSET	-0.162817	 0.003801	-0.000067
					CHANNELS 3 Zrotation Xrotation Yrotation
					JOINT r_shoulder
					{
						OFFSET	 0.002125	 0.026355	-0.022719
						CHANNELS 3 Zrotation Xrotation Yrotation
						JOINT r_forearm
						{
							OFFSET	-0.279896	-0.026941	 0.065273
							CHANNELS 3 Zrotation Xrotation Yrotation
							JOINT r_end_wrist
							{
								OFFSET	-0.317022	 0.006522	-0.006331
								CHANNELS 3 Zrotation Xrotation Yrotation
								JOINT r_index1
								{
									OFFSET	-0.152748	 0.021000	 0.014322
									CHANNELS 3 Zrotation Xrotation Yrotation
									JOINT r_index2
									{
										OFFSET	-0.039280	 0.000000	-0.000001
										CHANNELS 3 Zrotation Xrotation Yrotation
										JOINT r_index3
										{
											OFFSET	-0.038152	 0.000000	-0.000001
											CHANNELS 3 Zrotation Xrotation Yrotation
											End Site
											{
												OFFSET	-0.038152	 0.000000	-0.000001
											}
										}
									}
								}
								JOINT r_middle1
								{
									OFFSET	-0.151722	-0.016194	 0.014664
									CHANNELS 3 Zrotation Xrotation Yrotation
									JOINT r_middle_2
									{
										OFFSET	-0.038270	 0.000000	 0.000003
										CHANNELS 3 Zrotation Xrotation Yrotation
										JOINT r_middle_3
										{
											OFFSET	-0.039744	 0.000000	 0.000000
											CHANNELS 3 Zrotation Xrotation Yrotation
											End Site
											{
												OFFSET	-0.039744	 0.000000	 0.000000
											}
										}
									}
								}
								JOINT r_pinky1
								{
									OFFSET	-0.117090	-0.077397	 0.013818
									CHANNELS 3 Zrotation Xrotation Yrotation
									JOINT r_pinky2
									{
										OFFSET	-0.028938	 0.000000	 0.000000
										CHANNELS 3 Zrotation Xrotation Yrotation
										JOINT r_pinky3
										{
											OFFSET	-0.027078	-0.000001	 0.000000
											CHANNELS 3 Zrotation Xrotation Yrotation
											End Site
											{
												OFFSET	-0.027078	-0.000001	 0.000000
											}
										}
									}
								}
								JOINT r_ring1
								{
									OFFSET	-0.137790	-0.047650	 0.014136
									CHANNELS 3 Zrotation Xrotation Yrotation
									JOINT r_ring2
									{
										OFFSET	-0.030748	 0.000000	-0.000001
										CHANNELS 3 Zrotation Xrotation Yrotation
										JOINT r_ring3
										{
											OFFSET	-0.032707	-0.000001	 0.000003
											CHANNELS 3 Zrotation Xrotation Yrotation
											End Site
											{
												OFFSET	-0.032707	-0.000001	 0.000003
											}
										}
									}
								}
								JOINT r_thumb1
								{
									OFFSET	-0.054054	 0.036728	 0.011262
									CHANNELS 3 Zrotation Xrotation Yrotation
									JOINT r_thumb_2
									{
										OFFSET	-0.051140	 0.005594	 0.001177
										CHANNELS 3 Zrotation Xrotation Yrotation
										JOINT r_thumb_3
										{
											OFFSET	-0.046419	 0.001906	-0.000190
											CHANNELS 3 Zrotation Xrotation Yrotation
											End Site
											{
												OFFSET	-0.046419	 0.001906	-0.000190
											}
										}
									}
								}
							}
						}
					}
				}
			}
		}
	}
	JOINT Pelvis
	{
		OFFSET	 0.153809	-0.002941	-0.002620
		CHANNELS 3 Zrotation Xrotation Yrotation
		JOINT l_thigh
		{
			OFFSET	 0.145216	-0.127334	 0.003600
			CHANNELS 3 Zrotation Xrotation Yrotation
			End Site
			{
				OFFSET	 0.145216	-0.127334	 0.003600
			}
		}
		JOINT r_thigh
		{
			OFFSET	 0.143029	 0.137873	 0.004469
			CHANNELS 3 Zrotation Xrotation Yrotation
			End Site
			{
				OFFSET	 0.143029	 0.137873	 0.004469
			}
		}
	}
}
MOTION
Frames:    5
Frame Time: 0.01666667
-0.001963	 0.002454	-0.116118	 179.305400	 0.221747	-89.965800	-0.000021	 0.000000	 0.000000	-0.000021	 0.000000	 0.000000	-3.525149	 11.225090	 114.920700	-0.813313	 0.122417	-8.559153	-39.721840	-22.971270	 34.504040	-46.877240	 33.730030	 8.058828	-1.508344	 27.119350	 0.905986	-11.666870	-4.636808	 35.944750	 2.477603	-1.136251	 35.323120	 2.739605	 0.675539	-52.364350	-0.352786	 1.276010	 35.556880	-0.202301	 3.178486	 36.024460	 2.411832	 5.494030	-52.520410	 39.007590	 20.375220	 27.137650	-6.436097	 19.357820	 32.910680	-5.387433	 19.254410	-57.899170	 18.466570	 10.398590	 33.996140	-3.686892	 9.480865	 35.137450	-0.646625	 10.763470	-53.750010	-51.281710	-9.954659	 11.445530	 23.982090	-0.549087	 0.208112	 14.789960	-0.368235	 3.437935	-0.000006	 0.000001	 90.000000	-90.000000	 0.000000	-86.406780	 177.642400	 8.601227	 111.084700	-0.813313	 0.122417	-8.559153	 12.236280	 10.972310	 52.931600	-1.045101	 10.743230	-0.604093	-2.262662	 22.375880	-11.302420	-11.666870	-4.636809	 35.944760	 2.477604	-1.136251	 35.323130	 2.739605	 0.675539	-52.364380	-0.352786	 1.276010	 35.556880	-0.202300	 3.178487	 36.024460	 2.411833	 5.494030	-52.520430	 39.007590	 20.375220	 27.137660	-6.436093	 19.357820	 32.910680	-5.387434	 19.254410	-57.899150	 18.466580	 10.398590	 33.996150	-3.686890	 9.480865	 35.137440	-0.646626	 10.763470	-53.750010	-51.281720	-9.954665	 11.445540	 23.982080	-0.549088	 0.208112	 14.789960	-0.368242	 3.437935	 0.000000	 90.000000	 0.000000	 177.641500	 1.693646	 173.691800	-177.179200	-1.281514	-6.296279
-0.003176	-0.016993	-0.090533	 177.989900	 1.093807	-89.758420	-2.266229	 0.483415	-0.404341	-2.003775	 1.222246	-0.389934	-2.489628	 8.104161	 113.911700	-0.813313	 0.122417	-8.559153	-42.128990	-23.010630	 31.927550	-38.620110	 33.245640	 7.533160	-4.140523	 25.486010	-11.369330	-10.530540	-3.889876	 30.834330	 2.482209	-1.133341	 29.258210	 2.892810	 0.440201	-57.785830	 0.399625	 1.768948	 30.922060	-0.215517	 3.169796	 30.706030	 2.536242	 5.281064	-56.000980	 38.637230	 20.206170	 24.762270	-6.506996	 19.318040	 28.560810	-5.436121	 19.248730	-60.298210	 18.431050	 10.376100	 31.524610	-3.725192	 9.456698	 30.082540	-0.591952	 10.613320	-57.430060	-52.499370	-10.294990	 10.527440	 21.089060	-0.546959	 0.182932	 8.061629	-0.342130	 3.382657	 0.273027	-0.326990	 90.065160	-90.190640	-0.154658	-90.511280	 178.121500	 7.006683	 110.391600	-0.813313	 0.122417	-8.559153	 10.239310	 12.177990	 53.374330	-19.321650	 7.180446	-2.889751	-1.650618	 15.903740	-15.661450	-11.454860	-4.475522	 38.749680	 2.475034	-1.138162	 38.891380	 2.694736	 0.736170	-50.908720	-0.068554	 1.482271	 36.382760	-0.207996	 3.174515	 33.689630	 2.527485	 5.297084	-55.743270	 39.962680	 20.809880	 24.714540	-6.480811	 19.332090	 30.148630	-5.495054	 19.244670	-63.183290	 19.078370	 10.791660	 32.345540	-3.703568	 9.469853	 32.913200	-0.601874	 10.642640	-56.718930	-48.221930	-8.847663	 14.850370	 22.334040	-0.548056	 0.193756	 15.223000	-0.369688	 3.441591	 0.000000	 90.000000	 0.000000	 176.084900	 3.846302	 171.999600	-176.789500	-1.525554	-5.886645
-0.003505	-0.023353	-0.082074	 177.563900	 1.375858	-89.672090	-3.003878	 0.644055	-0.535449	-2.653590	 1.633480	-0.516484	-2.164108	 7.077597	 113.595800	-0.813313	 0.122417	-8.559153	-42.910900	-22.998050	 31.080010	-35.890360	 33.086940	 7.273465	-4.939109	 25.054320	-15.431900	-10.147230	-3.669093	 29.166560	 2.483773	-1.132500	 27.281280	 2.937856	 0.360483	-59.552850	 0.652858	 1.916035	 29.409790	-0.219993	 3.167232	 28.972430	 2.573951	 5.210064	-57.135170	 38.515080	 20.154220	 23.988260	-6.530770	 19.306180	 27.143130	-5.452038	 19.247290	-61.080200	 18.419310	 10.369130	 30.719020	-3.738124	 9.449552	 28.434910	-0.576270	 10.563670	-58.629200	-52.897720	-10.401760	 10.226420	 20.146040	-0.545989	 0.174751	 5.868462	-0.332240	 3.365344	 0.362376	-0.413758	 90.086490	-90.231410	-0.204713	-91.861240	 178.272800	 6.484845	 110.174800	-0.813313	 0.122417	-8.559153	 9.582273	 12.570490	 53.530220	-25.428650	 6.103109	-3.258141	-1.463610	 13.771520	-17.048580	-11.387500	-4.420721	 39.666470	 2.474223	-1.138819	 40.054780	 2.679781	 0.755683	-50.434270	 0.023301	 1.550275	 36.651920	-0.209886	 3.173272	 32.929230	 2.562728	 5.231563	-56.792840	 40.277700	 20.942880	 23.921980	-6.495655	 19.324150	 29.248890	-5.530265	 19.243530	-64.904540	 19.279840	 10.915650	 31.806640	-3.709091	 9.466403	 32.188850	-0.588679	 10.602810	-57.685950	-47.242270	-8.448802	 15.943580	 21.796840	-0.547617	 0.189084	 15.364170	-0.370159	 3.442787	 0.000000	 90.000000	 0.000000	 175.598700	 4.557321	 171.467100	-176.662700	-1.602584	-5.755291
-0.003813	-0.030032	-0.073150	 177.120500	 1.670046	-89.571400	-3.776315	 0.813813	-0.672247	-3.332755	 2.070924	-0.648598	-1.828704	 5.996158	 113.271400	-0.813313	 0.122417	-8.559153	-43.729110	-22.971550	 30.186640	-33.011180	 32.913600	 6.954175	-5.740124	 24.651140	-19.720470	-9.739731	-3.450268	 27.418260	 2.485442	-1.131676	 25.210010	 2.982390	 0.275514	-61.404100	 0.921924	 2.062706	 27.824630	-0.224764	 3.164693	 27.156130	 2.611933	 5.134897	-58.323260	 38.386410	 20.101490	 23.177470	-6.556003	 19.294360	 25.657910	-5.468737	 19.246010	-61.899510	 18.406920	 10.362010	 29.874990	-3.751891	 9.442460	 26.708670	-0.560981	 10.511310	-59.885310	-53.315800	-10.511390	 9.910157	 19.158040	-0.544824	 0.166199	 3.570637	-0.321172	 3.347626	 0.456254	-0.508810	 90.108960	-90.275960	-0.257833	-93.269780	 178.429300	 5.937039	 109.949400	-0.813313	 0.122417	-8.559153	 8.889869	 12.982140	 53.699840	-31.878630	 4.977870	-3.447044	-1.273041	 11.532860	-18.485040	-11.317910	-4.362175	 40.629250	 2.473387	-1.139526	 41.273960	 2.663942	 0.775990	-49.937230	 0.119102	 1.621917	 36.933960	-0.211882	 3.171998	 32.133090	 2.598334	 5.162274	-57.891820	 40.609260	 21.077460	 23.090300	-6.511338	 19.316070	 28.306670	-5.567153	 19.243400	-66.707040	 19.491790	 11.043260	 31.241760	-3.714921	 9.462870	 31.430490	-0.575598	 10.560850	-58.698640	-46.225970	-8.011526	 17.079440	 21.234010	-0.547124	 0.184192	 15.512060	-0.370643	 3.444040	 0.000000	 90.000000	 0.000000	 175.101500	 5.306776	 170.897700	-176.530300	-1.682125	-5.617625
-0.004077	-0.036490	-0.064466	 176.696500	 1.953070	-89.464270	-4.522756	 0.979234	-0.803836	-3.987807	 2.498020	-0.775830	-1.509636	 4.944595	 112.964100	-0.813313	 0.122417	-8.559153	-44.519360	-22.932930	 29.317020	-30.209920	 32.735480	 6.599535	-6.488722	 24.308200	-23.892870	-9.340570	-3.251138	 25.727220	 2.487084	-1.130939	 23.207640	 3.022812	 0.192044	-63.193700	 1.185380	 2.197106	 26.291560	-0.229450	 3.162383	 25.400240	 2.647153	 5.061498	-59.471670	 38.261400	 20.052170	 22.393760	-6.580697	 19.283530	 24.222180	-5.484900	 19.244980	-62.691570	 18.394900	 10.355330	 29.059040	-3.765400	 9.435999	 25.039880	-0.547314	 10.460390	-61.099450	-53.720700	-10.615210	 9.603571	 18.202890	-0.543570	 0.157950	 1.349254	-0.309808	 3.330934	 0.547333	-0.598045	 90.130890	-90.327330	-0.309302	-94.630390	 178.578600	 5.406387	 109.731200	-0.813313	 0.122417	-8.559153	 8.216134	 13.380770	 53.870230	-38.148540	 3.868147	-3.444017	-1.093244	 9.367341	-19.857880	-11.251590	-4.304454	 41.562740	 2.472593	-1.140225	 42.452900	 2.648465	 0.795487	-49.456820	 0.211258	 1.691532	 37.206660	-0.213827	 3.170794	 31.364070	 2.631459	 5.094690	-58.953510	 40.931070	 21.202860	 22.285170	-6.526625	 19.308500	 27.396340	-5.602784	 19.244320	-68.448550	 19.697460	 11.164340	 30.695430	-3.720596	 9.459526	 30.697950	-0.563677	 10.520100	-59.677080	-45.253690	-7.570337	 18.167850	 20.689910	-0.546605	 0.179469	 15.655050	-0.371117	 3.445252	 0.000000	 90.000000	 0.000000	 174.633100	 6.035435	 170.334000	-176.402700	-1.758488	-5.483946
